<svg width="193" height="26" viewBox="0 0 193 26" fill="none" xmlns="http://www.w3.org/2000/svg">
<path d="M11.41 25.56C13.265 25.56 14.91 25.28 16.345 24.65C17.78 24.055 18.9 23.18 19.705 22.025C20.51 20.87 20.93 19.505 20.93 17.86C20.93 13.905 18.55 11.525 13.755 10.755L11.13 10.335C9.275 10.02 8.05 9.635 7.455 9.18C6.825 8.725 6.51 8.06 6.51 7.22C6.51 6.275 6.93 5.54 7.735 5.015C8.54 4.49 9.66 4.245 11.095 4.245C12.39 4.245 13.44 4.49 14.28 4.945C15.12 5.435 15.645 6.17 15.89 7.15H20.65C20.265 4.84 19.18 3.09 17.465 1.865C15.75 0.674998 13.615 0.0799996 11.06 0.0799996C9.31 0.0799996 7.735 0.395 6.335 0.989998C4.9 1.62 3.78 2.495 2.975 3.615C2.135 4.77 1.715 6.1 1.715 7.64C1.715 9.635 2.275 11.175 3.43 12.26C4.55 13.345 6.23 14.045 8.505 14.43L11.235 14.885C12.565 15.095 13.58 15.34 14.28 15.655C14.98 15.97 15.47 16.355 15.715 16.775C15.96 17.23 16.1 17.72 16.1 18.315C16.1 19.33 15.645 20.065 14.77 20.59C13.86 21.115 12.705 21.395 11.34 21.395C9.905 21.395 8.68 21.08 7.7 20.485C6.685 19.89 6.055 19.12 5.74 18.14H0.98C1.505 20.485 2.695 22.305 4.48 23.6C6.265 24.895 8.575 25.56 11.41 25.56ZM39.1185 25H56.8635V20.835H43.8785V14.675H56.2685V10.51H43.8785V4.805H56.6885V0.639999H39.1185V25ZM75.6088 25H80.3688V16.565H85.2338L90.5888 25H96.1188L90.0988 15.795C91.6038 15.2 92.7938 14.255 93.7038 13.03C94.5788 11.805 95.0338 10.3 95.0338 8.55C95.0338 6.135 94.1938 4.21 92.5488 2.775C90.8688 1.34 88.5238 0.639999 85.5488 0.639999H75.6088V25ZM80.3688 12.435V4.77H84.9188C86.7388 4.77 88.0688 5.085 88.9438 5.68C89.7838 6.275 90.2038 7.22 90.2038 8.515C90.2038 9.81 89.7838 10.755 88.9438 11.42C88.0688 12.085 86.7388 12.435 84.9188 12.435H80.3688ZM118.26 25V0.639999H113.5V25H118.26ZM137.788 25H155.533V20.835H142.548V14.675H154.938V10.51H142.548V4.805H155.358V0.639999H137.788V25ZM182.924 25.56C184.779 25.56 186.424 25.28 187.859 24.65C189.294 24.055 190.414 23.18 191.219 22.025C192.024 20.87 192.444 19.505 192.444 17.86C192.444 13.905 190.064 11.525 185.269 10.755L182.644 10.335C180.789 10.02 179.564 9.635 178.969 9.18C178.339 8.725 178.024 8.06 178.024 7.22C178.024 6.275 178.444 5.54 179.249 5.015C180.054 4.49 181.174 4.245 182.609 4.245C183.904 4.245 184.954 4.49 185.794 4.945C186.634 5.435 187.159 6.17 187.404 7.15H192.164C191.779 4.84 190.694 3.09 188.979 1.865C187.264 0.674998 185.129 0.0799996 182.574 0.0799996C180.824 0.0799996 179.249 0.395 177.849 0.989998C176.414 1.62 175.294 2.495 174.489 3.615C173.649 4.77 173.229 6.1 173.229 7.64C173.229 9.635 173.789 11.175 174.944 12.26C176.064 13.345 177.744 14.045 180.019 14.43L182.749 14.885C184.079 15.095 185.094 15.34 185.794 15.655C186.494 15.97 186.984 16.355 187.229 16.775C187.474 17.23 187.614 17.72 187.614 18.315C187.614 19.33 187.159 20.065 186.284 20.59C185.374 21.115 184.219 21.395 182.854 21.395C181.419 21.395 180.194 21.08 179.214 20.485C178.199 19.89 177.569 19.12 177.254 18.14H172.494C173.019 20.485 174.209 22.305 175.994 23.6C177.779 24.895 180.089 25.56 182.924 25.56Z" fill="#B9BBB9"/>
</svg>
